Coordinates
version=1
nRows=8
nColumns=40
inDegrees=yes

Units are S.I. units (second, meters, Newtons, ...)
Angles are in degrees.

endheader
time	pelvis_tilt	pelvis_list	pelvis_rotation	pelvis_tx	pelvis_ty	pelvis_tz	hip_flexion_r	hip_adduction_r	hip_rotation_r	knee_angle_r	knee_angle_r_beta	ankle_angle_r	subtalar_angle_r	mtp_angle_r	hip_flexion_l	hip_adduction_l	hip_rotation_l	knee_angle_l	knee_angle_l_beta	ankle_angle_l	subtalar_angle_l	mtp_angle_l	lumbar_extension	lumbar_bending	lumbar_rotation	arm_flex_r	arm_add_r	arm_rot_r	elbow_flex_r	pro_sup_r	wrist_flex_r	wrist_dev_r	arm_flex_l	arm_add_l	arm_rot_l	elbow_flex_l	pro_sup_l	wrist_flex_l	wrist_dev_l
      1.10000000	     -0.75675797	      1.16570220	      1.93079055	     -0.17485165	      0.93994006	     -1.49467609	     25.49049797	     -7.29557756	    -24.37738494	    -12.47339483	     -0.21770181	      0.09278251	      7.25828082	      4.95425499	    -11.25864910	     -0.40441326	     13.16576472	    -12.43648174	     -0.21705755	      7.22695488	     -6.75675872	    -15.82343003	     -4.58978126	     -1.66800640	     -7.64478457	     -4.29461071	     -8.94057115	    -22.17343031	     13.88525273	     89.95437384	      0.00000000	      0.00000000	     17.64012787	     19.97969327	      8.54964856	     39.45713042	     89.95437384	      0.00000000	      0.00000000
      1.11000000	     -0.72254841	      1.07617709	      2.24057603	     -0.16445076	      0.93873557	     -1.49334999	     25.62675655	     -7.17988462	    -24.17786278	    -13.46035789	     -0.23492756	      0.11077362	      6.50285905	      4.67207313	    -11.76514719	     -0.01848011	     12.90642618	    -12.85826427	     -0.22441905	      7.19307613	     -6.96411021	    -15.71556939	     -4.51737665	     -1.56659139	     -7.92020377	     -4.61926915	     -8.98499281	    -22.08387002	     13.65586264	     89.95437384	      0.00000000	      0.00000000	     17.35400928	     19.91156790	      8.57931277	     39.64561015	     89.95437384	      0.00000000	      0.00000000
      1.12000000	     -0.68080428	      0.95242904	      2.62284864	     -0.15378467	      0.93764535	     -1.49197397	     25.60617667	     -7.00771343	    -23.76910540	    -14.39826721	     -0.25129717	      0.12995564	      5.82092151	      4.47719446	    -12.23888391	      0.43864080	     12.59631095	    -13.35159724	     -0.23302933	      7.07664341	     -6.99505333	    -15.52431297	     -4.43571037	     -1.41449258	     -8.28269187	     -4.96234808	     -9.01315437	    -22.13102588	     13.55403038	     89.95437384	      0.00000000	      0.00000000	     16.93928427	     19.82747652	      8.74497692	     39.79916593	     89.95437384	      0.00000000	      0.00000000
      1.13000000	     -0.80858972	      1.05644160	      2.85254013	     -0.14281690	      0.93636295	     -1.49027647	     25.59124958	     -6.97581368	    -23.22114503	    -15.03682230	     -0.26244206	     -0.01410263	      5.54821316	      4.37877956	    -12.47715855	      0.61129830	     12.33935910	    -13.99617619	     -0.24427936	      6.85011259	     -6.75699341	    -15.19015253	     -4.10716562	     -1.58551845	     -8.33085961	     -5.60390852	     -8.97328226	    -22.08043937	     13.72200673	     89.95437384	      0.00000000	      0.00000000	     16.50522143	     19.67288214	      8.75359150	     39.91460041	     89.95437384	      0.00000000	      0.00000000
      1.14000000	     -0.43160680	      0.59870394	      3.34021498	     -0.13148999	      0.93584186	     -1.48878936	     25.14677634	     -6.52067559	    -22.93507839	    -16.46761064	     -0.28741403	      0.29868358	      4.31774373	      4.13712220	    -13.34848604	      1.50159455	     12.04880881	    -14.42336903	     -0.25173528	      6.84989252	     -6.88054193	    -15.07398967	     -4.31921596	     -1.03168767	     -8.87653359	     -5.70895941	     -9.06914510	    -22.28807851	     13.33732579	     89.95437384	      0.00000000	      0.00000000	     15.92794389	     19.49578961	      9.07302955	     39.94266476	     89.95437384	      0.00000000	      0.00000000
      1.15000000	      0.34728940	     -0.53274261	      3.75783524	     -0.11949805	      0.93607363	     -1.48588672	     23.52957114	     -4.78040609	    -22.21666531	    -16.10248541	     -0.28104139	     -1.09804907	      1.28392867	      3.61451878	    -14.41590721	      3.61078049	     13.64152396	    -15.36094451	     -0.26809906	      5.73514332	     -9.87032525	    -16.50135450	     -4.91640368	      0.19480999	     -9.02156907	     -5.95067754	     -9.03879186	    -23.20555242	     13.12297388	     89.95437384	      0.00000000	      0.00000000	     15.39845381	     19.19608028	      9.34348618	     40.04953073	     89.95437384	      0.00000000	      0.00000000
      1.16000000	      0.67272345	     -0.89589712	      4.14760653	     -0.10804507	      0.93580939	     -1.48406159	     22.89178764	     -4.40053215	    -22.43483787	    -16.55226863	     -0.28889159	     -3.38340844	      0.54800083	      3.72072908	    -15.11877217	      4.40661767	     13.30998730	    -15.94429864	     -0.27828051	      5.23821709	     -9.62446508	    -16.48349539	     -5.07317501	      0.63438919	     -9.25956293	     -6.28440320	     -9.03884712	    -23.64325942	     13.20895289	     89.95437384	      0.00000000	      0.00000000	     14.84892453	     18.87153498	      9.64804352	     39.90907915	     89.95437384	      0.00000000	      0.00000000
      1.17000000	      0.82950457	     -1.15179574	      4.25761428	     -0.09681083	      0.93545919	     -1.48179267	     22.73315965	     -4.17795649	    -22.19977260	    -17.43543826	     -0.30430580	     -4.66325337	      0.21334359	      3.68755939	    -15.60650449	      5.02952554	     13.21124857	    -16.64548390	     -0.29051850	      4.85748940	     -9.36283770	    -16.23509469	     -5.02899978	      0.91647094	     -9.16559998	     -6.54084791	     -9.09079078	    -23.62833050	     13.01057989	     89.95437384	      0.00000000	      0.00000000	     14.34069813	     18.53533355	      9.82809911	     39.55399038	     89.95437384	      0.00000000	      0.00000000
